<?xml version="1.0" encoding="utf-8"?>
<!-- Generator: Adobe Illustrator 27.0.0, SVG Export Plug-In . SVG Version: 6.00 Build 0)  -->
<svg version="1.1"
	 id="svg2" xmlns:rdf="http://www.w3.org/1999/02/22-rdf-syntax-ns#" xmlns:dc="http://purl.org/dc/elements/1.1/" xmlns:svg="http://www.w3.org/2000/svg" xmlns:cc="http://creativecommons.org/ns#"
	 xmlns="http://www.w3.org/2000/svg" xmlns:xlink="http://www.w3.org/1999/xlink" x="0px" y="0px" viewBox="0 0 770 660"
	 style="enable-background:new 0 0 770 660;" xml:space="preserve">
<style type="text/css">
	.st0{fill:#1A1A1A;stroke:#000000;stroke-width:1.8;}
	.st1{fill:url(#C5EEEB26_00000029034984063191445670000016829420236020346012_);}
	.st2{fill:url(#DAEEEB26_00000147209977359492058100000003395707200411168661_);}
	.st3{fill:url(#_x39_AEEEB26_00000067197260707898279330000007156615588790814096_);}
	.st4{fill:url(#DAEEEB26_00000116205331763843131740000008824157314980928899_);}
	.st5{fill:url(#F6EEEB26_00000058582487787352837210000010625974947945422228_);}
	.st6{fill:url(#_x37_7EEEB26_00000021817101040180637330000012179438293770457524_);}
	.st7{fill:#9E00CD;}
	.st8{fill:#FFFFFF;}
	.st9{fill:#1A1A1A;}
	.st10{fill:#FFFFFF;stroke:#FFFFFF;stroke-linecap:square;stroke-miterlimit:10;}
</style>
<g id="layer_Paper">
	<path id="_x30_2EEEB26" class="st0" d="M714.5,256.9c55,16,55,16,55,16L718.2,288l35.1,14.7l-37,6.9L714.5,256.9z"/>
	
		<linearGradient id="C5EEEB26_00000036951611762497480330000011088353145672311680_" gradientUnits="userSpaceOnUse" x1="315.8665" y1="354.6071" x2="314.6427" y2="354.6071" gradientTransform="matrix(320.8818 0 0 -256.9775 -100885.3047 91430.4453)">
		<stop  offset="0" style="stop-color:#6D5656"/>
		<stop  offset="1" style="stop-color:#000000"/>
	</linearGradient>
	<path id="C5EEEB26" style="fill:url(#C5EEEB26_00000036951611762497480330000011088353145672311680_);" d="M78.2,180.2
		C69.2,271,207,416.7,343.1,428.2c53.2,4.5,131.3-35.2,127.2-77.3C459,233.4,229.3,227.5,78.2,180.2z"/>
	
		<linearGradient id="DAEEEB26_00000109737238842715743100000016671850134136663738_" gradientUnits="userSpaceOnUse" x1="329.2737" y1="89.6217" x2="369.7578" y2="161.1607">
		<stop  offset="0" style="stop-color:#277AFF"/>
		<stop  offset="0.7747" style="stop-color:#9E00CD"/>
	</linearGradient>
	<path id="DAEEEB26" style="fill:url(#DAEEEB26_00000109737238842715743100000016671850134136663738_);" d="M386.6,172.2
		c-14-7.7-31.1-14.5-37-28.7c-3.9-9.5-8-19.1-9.9-29.1c-1.7-13.5,0-27.2-0.7-40.7c2.6-8.7-4-16.6-14.3-18.2
		c-13.4-3.3-27.6-2.9-41.3-4.5c-12.6-0.6-27.7,1.7-37.7-6.3C238,36.9,234.7,27,231,17.7c-0.9-4.9,6.8-5.1,10.1-7.9
		c6-3.2,12.1-6.5,18.1-9.7c1.3,9.1,6,17.5,10.2,25.8c5.8,8.7,18.4,9.1,28.9,8.9c16.4,0.9,33,1.2,49,4.2c10.1,2,22,8.1,21,18
		c0.7,20.7-3.4,42.1,5,62c3.5,8.9,6.9,18.5,16.2,24.5c7,5.5,15.7,9.1,23.5,13.5c-6.4,4.7-14.5,8.3-21.5,12.6
		C389.8,170.4,388.2,171.3,386.6,172.2z"/>
	
		<linearGradient id="_x39_AEEEB26_00000033359066970716399670000015011352904132246191_" gradientUnits="userSpaceOnUse" x1="148.402" y1="22.2118" x2="382.2571" y2="241.9831">
		<stop  offset="0" style="stop-color:#FF0000"/>
		<stop  offset="0.2654" style="stop-color:#FB0009"/>
		<stop  offset="0.8441" style="stop-color:#9E00CD"/>
	</linearGradient>
	<path id="_x39_AEEEB26" style="fill:url(#_x39_AEEEB26_00000033359066970716399670000015011352904132246191_);" d="M399.4,189.6
		c-19.2-0.6-41.6,1.4-56.3-13.5c-13-11.9-23.5-26.8-30.3-43c-1.2-11.8-1.2-26.2-14-31.8c-14.8-7.9-32.2-6.7-48.4-8.9
		c-30.5-1.7-59.5,9-87.9,18.4c-13.5,4.4-30.1,3.6-40-7.7c-7.7-7.4-12.4-17-17.2-26.3c-7.1-6-7.5-15.2,2.1-17.7
		c5.9-3.4,11.8-6.7,17.8-10.1c9.1,16.5,16,37.8,35.2,45.2c19.7,4.2,37.9-7.1,56.5-11.6c26.3-8.4,54.4-9.7,81.6-5.2
		c15.6,1.4,34.6,7.1,39.3,24c1.4,14.7,4.5,29,15,40.1c9.9,14.9,24.4,29.2,43.4,29.8c6.3,2.1,26.9-2.2,24.7,2.9
		C413.6,179.3,406.5,184.4,399.4,189.6z"/>
	
		<linearGradient id="DAEEEB26_00000093898240681844700850000009962657418508498839_" gradientUnits="userSpaceOnUse" x1="196.7043" y1="113.1751" x2="400.9845" y2="237.4955">
		<stop  offset="0.3591" style="stop-color:#FFAA00"/>
		<stop  offset="0.7839" style="stop-color:#9E00CD"/>
	</linearGradient>
	
		<path id="DAEEEB26_00000148638193190200027310000000132979130195592339_" style="fill:url(#DAEEEB26_00000093898240681844700850000009962657418508498839_);" d="
		M409.3,198.2c-15.8,3.3-33,9.5-48.6,2.1c-10.4-5-20.9-10-30.3-16.7c-12.1-9.8-21.9-22-33.4-32.4c-5.2-8.8-16.2-10.7-24.5-5
		c-11.9,6.5-21.2,16.5-32,24.7c-9.1,8.2-17.6,20.4-31,20.7c-11.4-1-21.7-6.8-31.8-11.8c-4.5-3.3,0.6-8.7,0.5-13.3
		c1.5-6.8,3-13.5,4.6-20.3c8.2,6.4,18.2,10.1,27.8,13.9c11,3.1,20-5.2,27-12.5c11.9-10.5,23.6-21.7,37.1-30.1
		c8.6-5.3,21.6-8.5,28.9,0.3c17.2,16.3,31.7,36.4,53.5,46.8c9.6,4.8,19.7,10.3,30.8,8.7c9.2-0.3,18.1-3.4,27-5.2
		c-0.6,8.2-3.3,16.6-4.6,24.9C410,194.6,409.6,196.4,409.3,198.2z"/>
	
		<linearGradient id="F6EEEB26_00000018947319026426320680000010413836713143531414_" gradientUnits="userSpaceOnUse" x1="315.6895" y1="353.693" x2="316.5282" y2="354.2375" gradientTransform="matrix(720.2529 0 0 -569.2396 -227283.9219 201907.5625)">
		<stop  offset="0" style="stop-color:#000000"/>
		<stop  offset="1" style="stop-color:#6D5656"/>
	</linearGradient>
	<path id="F6EEEB26" style="fill:url(#F6EEEB26_00000018947319026426320680000010413836713143531414_);" d="M0.5,502.2
		c121.8,135.8,341.2,197,500.8,131.3c133.1-54.8,219.4-231.7,219.5-372c0-96.1-96.2-205.3-238.6-160.3
		c-64,20.2-112.8,84.5-154,142.9C236,366.7,154.3,449.1,0.5,502.2z"/>
	
		<linearGradient id="_x37_7EEEB26_00000132768584782864353360000000647700121261821072_" gradientUnits="userSpaceOnUse" x1="314.859" y1="354.5919" x2="315.8548" y2="354.9808" gradientTransform="matrix(345.7869 0 0 -218.8318 -108861.0078 78000.3047)">
		<stop  offset="0" style="stop-color:#000000"/>
		<stop  offset="1" style="stop-color:#6D5656"/>
	</linearGradient>
	<path id="_x37_7EEEB26" style="fill:url(#_x37_7EEEB26_00000132768584782864353360000000647700121261821072_);" d="M10,270.2
		c8.2,86.5,151.8,206.8,270.4,201.3c46.3-2.2,106.2-48.9,95.3-88C345.3,274.3,147.6,296.5,10,270.2z"/>
	<path id="_x30_8EEEB26" class="st7" d="M401,153.9c38.7,3.5,107.1,15.7,161.1,19.1c44.3,2.7,96.6,1.6,133.1,0.8
		c26.4,45.3,28.6,93.6,21.1,135.9c-77.8,13-135.8,3.4-199.3-16.9c-57.8-18.5-115.1-46.3-156.6-92.6C379,173.8,385.3,168.1,401,153.9
		z"/>
	<g id="_x32_8EEEB26">
		<g id="_x34_8EEEB26">
			<g id="_x37_8EEEB26">
				<path id="D8EEEB26" class="st8" d="M688.5,264.6c-7.7,20.1-34.4,27.7-59.7,17s-39.7-35.6-32-55.7c7.7-20.1,34.4-27.7,59.7-17
					C681.9,219.5,696.2,244.5,688.5,264.6z"/>
				<path id="_x32_9EEEB26" class="st9" d="M685.9,262.1c-5.8,15.2-24.8,21.4-42.6,13.9s-27.4-25.8-21.6-41
					c5.8-15.2,24.8-21.4,42.6-13.9C682,228.6,691.7,247,685.9,262.1z"/>
				<path id="_x38_9EEEB26" class="st8" d="M678.8,242.7c-2,5.4-8.5,7.7-14.5,5.1c-6-2.5-9.2-8.9-7.1-14.3c2-5.4,8.5-7.7,14.5-5.1
					S680.8,237.3,678.8,242.7z"/>
			</g>
		</g>
	</g>
	<path id="_x34_AEEEB26" class="st9" d="M685.8,235.8c-9.7-6.1-17.8-14.4-27.5-20.6c-9.3-6.3-19-12.4-29.4-16.6
		c-4.6-1.6-9.2-3.2-13.7-4.8c-3.1,0.7,0.6-2,1.2-3.1c3.2-3.5,6.3-7.1,9.5-10.6c4.1,0.5,7.7,2.8,11.7,3.8c10.8,4.4,20.6,11,30.3,17.3
		c9.6,6.5,18.5,13.9,28.2,20.2c2.9,0.5,2.7,2.5,0.5,3.7C693,228.7,689.4,232.3,685.8,235.8z"/>
	<polygon id="_x35_07C0036" class="st10" points="565.6,230.1 544.5,237.3 537.3,258.5 530.1,237.3 508.9,230.1 530.1,222.9 
		537.3,201.8 544.5,222.9 	"/>
	<polygon id="_x35_07C0036_00000173869416966066664550000014806551074575258271_" class="st10" points="479.1,205.8 463.4,211.1 
		458,226.8 452.6,211.1 436.9,205.8 452.6,200.4 458,184.7 463.4,200.4 	"/>
</g>
</svg>
